<svg xmlns="http://www.w3.org/2000/svg" xmlns:xlink="http://www.w3.org/1999/xlink" width="235px" height="98px" viewBox="0 0 235 98"><title>1FFD8D43-510A-4D65-A710-A293983764E5</title><desc>Created with sketchtool.</desc><defs><polygon id="path-1" points="0.101044604 0.235095745 72.7833108 0.235095745 72.7833108 97.7449915 0.101044604 97.7449915"></polygon></defs><g id="maquettes" stroke="none" stroke-width="1" fill="none" fill-rule="evenodd"><g id="Desktop-HD-Copy" transform="translate(-596.000000, -257.000000)"><g id="intro"><g id="Group-5" transform="translate(560.000000, 257.000000)"><g id="logo"><g id="Group" transform="translate(36.000000, 0.000000)"><polygon id="Fill-33" fill="#F95959" points="28.8927141 9 28.8927141 10.4550824 24.5383019 10.4550824 24.5383019 44.5449176 54.4611809 44.5449176 54.4611809 10.4550824 44.9352579 10.4550824 44.9352579 9 79 9 79 10.4550824 69.4745941 10.4550824 69.4745941 81.5449176 79 81.5449176 79 83 44.9352579 83 44.9352579 81.5449176 54.4611809 81.5449176 54.4611809 46 24.5383019 46 24.5383019 81.5449176 34.0642249 81.5449176 34.0642249 83 0 83 0 81.5449176 9.52540587 81.5449176 9.52540587 10.4550824 0 10.4550824 0 9"></polygon><path d="M117.049609,9 L117.049609,10.4550824 L112.671551,10.4550824 L112.671551,81.5449176 L130.160904,81.5449176 C135.470209,81.5449176 140.259034,79.5701999 144.318357,75.6207646 C148.482711,71.6713294 151.293092,66.2668116 152.646546,59.5115538 L154,59.5115538 L154,83 L88,83 L88,81.5449176 L97.5771312,81.5449176 L97.5771312,10.4550824 L88,10.4550824 L88,9 L117.049609,9 Z" id="Fill-35" fill="#F95959"></path><path d="M221.629484,9.65795665 L223.40495,9.65795665 L223.40495,30.7993627 L221.838179,30.7993627 C218.286725,17.6376818 211.601206,9.45090618 199.380074,9.45090618 C181.935847,9.45090618 177.026316,22.0939256 177.026316,40.2305117 L177.026316,50.6969131 C177.026316,61.5784506 178.383872,69.6622187 181.517937,75.0507072 C184.965044,80.9578572 190.396832,83.5490938 199.17138,83.5490938 C208.154622,83.5490938 213.482063,79.2999005 213.482063,62.4076878 L213.482063,57.3297749 L202.722833,57.3297749 L202.722833,55.6210909 L235,55.6210909 L235,57.3297749 L228.210134,57.3297749 L228.210134,81.0619 L226.330321,81.0619 C226.016758,79.4039434 224.553812,78.6782315 222.882693,78.6782315 C216.615606,78.6782315 211.496859,85 199.067033,85 C177.757268,85 160,67.2780325 160,46.7593307 C160,34.3228441 166.16274,23.648357 175.041634,16.7049195 C182.040195,11.2123881 190.81422,8 199.067033,8 C206.692197,8 215.257529,11.8340571 218.391072,11.8340571 C220.376276,11.8340571 220.898533,11.3159133 221.629484,9.65795665" id="Fill-37" fill="#F95959"></path><polygon id="Fill-39" fill="#FFA952" points="24.9337966 1 33.7480407 1 25.4672613 41.5026126 69.9952874 41.5026126 78.2771169 1 87 1 68.0662034 95 59.3433203 95 68.5944175 49.12895 24.0663914 49.12895 14.8152943 95 6 95"></polygon><polygon id="Fill-41" fill="#FFA952" points="112.836509 1 121.473137 1 104.218077 87.6460689 152 87.6460689 150.509008 95 94 95"></polygon><g id="Group-45" transform="translate(161.000000, 0.000000)"><mask id="mask-2" fill="white"><use xlink:href="#path-1"></use></mask><g id="Clip-44"></g><path d="M0.101044604,60.1901404 C0.101044604,31.0142894 18.591577,0.234991489 49.6785482,0.234991489 C60.7136273,0.234991489 68.1837856,6.25834255 72.7833108,13.8543851 L66.4816777,18.4181617 C62.7339942,12.1998532 57.2285338,7.77682128 49.1155554,7.77682128 C23.8586058,7.77682128 9.00914532,35.9168957 9.00914532,59.2408957 C9.00914532,76.5686511 16.3485338,90.2943851 35.1961885,90.2943851 C42.8643396,90.2943851 48.9585266,87.4966936 52.9309871,83.8404596 L58.6323396,55.9870872 L37.962836,55.9870872 L39.469577,48.7184064 L68.2215986,48.7184064 L60.1621885,88.2098 C53.3474547,93.933417 44.6326201,97.7449915 34.0833324,97.7449915 C11.5940806,97.7449915 0.101044604,82.5638532 0.101044604,60.1901404" id="Fill-43" fill="#FFA952" mask="url(#mask-2)"></path></g></g></g></g></g></g></g></svg>